<?xml version="1.0" encoding="UTF-8" standalone="no"?>
<!-- Created with Inkscape (http://www.inkscape.org/) -->

<svg
   xmlns:dc="http://purl.org/dc/elements/1.1/"
   xmlns:cc="http://creativecommons.org/ns#"
   xmlns:rdf="http://www.w3.org/1999/02/22-rdf-syntax-ns#"
   xmlns:svg="http://www.w3.org/2000/svg"
   xmlns="http://www.w3.org/2000/svg"
   xmlns:xlink="http://www.w3.org/1999/xlink"
   xmlns:sodipodi="http://sodipodi.sourceforge.net/DTD/sodipodi-0.dtd"
   xmlns:inkscape="http://www.inkscape.org/namespaces/inkscape"
   version="1.0"
   width="299.85333"
   height="380.31952"
   id="svg2"
   inkscape:version="0.47 r22583"
   sodipodi:docname="Sprühschaf.svg"
   inkscape:export-filename="/matrix23/sync/gfx/Maren-Geburtstag 2012/fertig/Gipsschaf.png"
   inkscape:export-xdpi="354"
   inkscape:export-ydpi="354">
  <metadata
     id="metadata7517">
    <rdf:RDF>
      <cc:Work
         rdf:about="">
        <dc:format>image/svg+xml</dc:format>
        <dc:type
           rdf:resource="http://purl.org/dc/dcmitype/StillImage" />
        <dc:title></dc:title>
      </cc:Work>
    </rdf:RDF>
  </metadata>
  <sodipodi:namedview
     pagecolor="#ffffff"
     bordercolor="#666666"
     borderopacity="1"
     objecttolerance="10"
     gridtolerance="10"
     guidetolerance="10"
     inkscape:pageopacity="0"
     inkscape:pageshadow="2"
     inkscape:window-width="1400"
     inkscape:window-height="977"
     id="namedview7515"
     showgrid="false"
     inkscape:zoom="0.92901097"
     inkscape:cx="67.320833"
     inkscape:cy="287.59178"
     inkscape:window-x="-3"
     inkscape:window-y="-3"
     inkscape:window-maximized="1"
     inkscape:current-layer="svg2" />
  <defs
     id="defs4">
    <inkscape:perspective
       sodipodi:type="inkscape:persp3d"
       inkscape:vp_x="0 : 127.0168 : 1"
       inkscape:vp_y="0 : 1000 : 0"
       inkscape:vp_z="244.0735 : 127.0168 : 1"
       inkscape:persp3d-origin="122.03675 : 84.677867 : 1"
       id="perspective7519" />
    <inkscape:perspective
       id="perspective7719"
       inkscape:persp3d-origin="0.5 : 0.33333333 : 1"
       inkscape:vp_z="1 : 0.5 : 1"
       inkscape:vp_y="0 : 1000 : 0"
       inkscape:vp_x="0 : 0.5 : 1"
       sodipodi:type="inkscape:persp3d" />
    <linearGradient
       id="id3"
       gradientUnits="userSpaceOnUse"
       x1="132.024"
       y1="187.59801"
       x2="0.113652"
       y2="187.59801">
      <stop
         offset="0"
         style="stop-color:#3F7D78"
         id="stop7677" />
      <stop
         offset="0.541176"
         style="stop-color:white"
         id="stop7679" />
      <stop
         offset="1"
         style="stop-color:#3F7D7A"
         id="stop7681" />
    </linearGradient>
    <linearGradient
       id="id2"
       gradientUnits="userSpaceOnUse"
       x1="108.515"
       y1="58.103901"
       x2="23.622499"
       y2="58.103901">
      <stop
         offset="0"
         style="stop-color:#3F7D78"
         id="stop7670" />
      <stop
         offset="0.501961"
         style="stop-color:white"
         id="stop7672" />
      <stop
         offset="1"
         style="stop-color:#3F7D7A"
         id="stop7674" />
    </linearGradient>
    <linearGradient
       id="id0"
       gradientUnits="userSpaceOnUse"
       x1="50.0536"
       y1="20.084299"
       x2="82.085602"
       y2="20.084299">
      <stop
         offset="0"
         style="stop-color:yellow"
         id="stop7644" />
      <stop
         offset="0.0784314"
         style="stop-color:#FCFFA1"
         id="stop7646" />
      <stop
         offset="0.14902"
         style="stop-color:#FDFFCB"
         id="stop7648" />
      <stop
         offset="0.239216"
         style="stop-color:white"
         id="stop7650" />
      <stop
         offset="0.658824"
         style="stop-color:#FCFF9E"
         id="stop7652" />
      <stop
         offset="1"
         style="stop-color:#FBEB0D"
         id="stop7654" />
    </linearGradient>
    <linearGradient
       id="id1"
       gradientUnits="userSpaceOnUse"
       x1="62.115002"
       y1="44.460602"
       x2="70.023399"
       y2="44.460602">
      <stop
         offset="0"
         style="stop-color:yellow"
         id="stop7657" />
      <stop
         offset="0.0784314"
         style="stop-color:#FCFFA1"
         id="stop7659" />
      <stop
         offset="0.14902"
         style="stop-color:#FDFFCB"
         id="stop7661" />
      <stop
         offset="0.239216"
         style="stop-color:white"
         id="stop7663" />
      <stop
         offset="0.658824"
         style="stop-color:#FCFF9E"
         id="stop7665" />
      <stop
         offset="1"
         style="stop-color:#FBEB0D"
         id="stop7667" />
    </linearGradient>
    <inkscape:perspective
       id="perspective7856"
       inkscape:persp3d-origin="0.5 : 0.33333333 : 1"
       inkscape:vp_z="1 : 0.5 : 1"
       inkscape:vp_y="0 : 1000 : 0"
       inkscape:vp_x="0 : 0.5 : 1"
       sodipodi:type="inkscape:persp3d" />
    <linearGradient
       inkscape:collect="always"
       xlink:href="#id3-1"
       id="linearGradient7846"
       gradientUnits="userSpaceOnUse"
       x1="132.024"
       y1="187.59801"
       x2="0.113652"
       y2="187.59801" />
    <linearGradient
       id="id3-1"
       gradientUnits="userSpaceOnUse"
       x1="132.024"
       y1="187.59801"
       x2="0.113652"
       y2="187.59801">
      <stop
         offset="0"
         style="stop-color:#3F7D78"
         id="stop7677-7" />
      <stop
         offset="0.541176"
         style="stop-color:white"
         id="stop7679-7" />
      <stop
         offset="1"
         style="stop-color:#3F7D7A"
         id="stop7681-1" />
    </linearGradient>
    <linearGradient
       id="id2-1"
       gradientUnits="userSpaceOnUse"
       x1="108.515"
       y1="58.103901"
       x2="23.622499"
       y2="58.103901">
      <stop
         offset="0"
         style="stop-color:#3F7D78"
         id="stop7670-5" />
      <stop
         offset="0.501961"
         style="stop-color:white"
         id="stop7672-9" />
      <stop
         offset="1"
         style="stop-color:#3F7D7A"
         id="stop7674-7" />
    </linearGradient>
    <linearGradient
       id="id0-7"
       gradientUnits="userSpaceOnUse"
       x1="50.0536"
       y1="20.084299"
       x2="82.085602"
       y2="20.084299">
      <stop
         offset="0"
         style="stop-color:yellow"
         id="stop7644-6" />
      <stop
         offset="0.0784314"
         style="stop-color:#FCFFA1"
         id="stop7646-7" />
      <stop
         offset="0.14902"
         style="stop-color:#FDFFCB"
         id="stop7648-3" />
      <stop
         offset="0.239216"
         style="stop-color:white"
         id="stop7650-6" />
      <stop
         offset="0.658824"
         style="stop-color:#FCFF9E"
         id="stop7652-5" />
      <stop
         offset="1"
         style="stop-color:#FBEB0D"
         id="stop7654-6" />
    </linearGradient>
    <linearGradient
       gradientTransform="translate(5.8563095,205.31784)"
       id="id1-3"
       gradientUnits="userSpaceOnUse"
       x1="62.115002"
       y1="44.460602"
       x2="70.023399"
       y2="44.460602">
      <stop
         offset="0"
         style="stop-color:yellow"
         id="stop7657-9" />
      <stop
         offset="0.0784314"
         style="stop-color:#FCFFA1"
         id="stop7659-4" />
      <stop
         offset="0.14902"
         style="stop-color:#FDFFCB"
         id="stop7661-8" />
      <stop
         offset="0.239216"
         style="stop-color:white"
         id="stop7663-1" />
      <stop
         offset="0.658824"
         style="stop-color:#FCFF9E"
         id="stop7665-2" />
      <stop
         offset="1"
         style="stop-color:#FBEB0D"
         id="stop7667-9" />
    </linearGradient>
    <linearGradient
       inkscape:collect="always"
       xlink:href="#id3-1"
       id="linearGradient8121"
       gradientUnits="userSpaceOnUse"
       gradientTransform="matrix(5.3630292,0,0,5.3630292,4.8445839,8.6113232)"
       x1="132.024"
       y1="187.59801"
       x2="0.113652"
       y2="187.59801" />
    <linearGradient
       inkscape:collect="always"
       xlink:href="#id2-1"
       id="linearGradient8123"
       gradientUnits="userSpaceOnUse"
       gradientTransform="matrix(5.3630292,0,0,5.3630292,4.8445839,8.6113232)"
       x1="108.515"
       y1="58.103901"
       x2="23.622499"
       y2="58.103901" />
    <linearGradient
       inkscape:collect="always"
       xlink:href="#id0-7"
       id="linearGradient8125"
       gradientUnits="userSpaceOnUse"
       gradientTransform="matrix(5.3630292,0,0,5.3630292,4.8445839,8.6113232)"
       x1="50.0536"
       y1="20.084299"
       x2="82.085602"
       y2="20.084299" />
    <linearGradient
       inkscape:collect="always"
       xlink:href="#id1-3"
       id="linearGradient8127"
       gradientUnits="userSpaceOnUse"
       gradientTransform="matrix(10.539765,0,0,10.539765,-163.60211,-437.66878)"
       x1="62.115002"
       y1="44.460602"
       x2="70.023399"
       y2="44.460602" />
    <inkscape:perspective
       id="perspective8273"
       inkscape:persp3d-origin="0.5 : 0.33333333 : 1"
       inkscape:vp_z="1 : 0.5 : 1"
       inkscape:vp_y="0 : 1000 : 0"
       inkscape:vp_x="0 : 0.5 : 1"
       sodipodi:type="inkscape:persp3d" />
    <filter
       color-interpolation-filters="sRGB"
       y="-0.11058675"
       x="-0.059278153"
       height="1.2211735"
       inkscape:collect="always"
       id="filter9098"
       width="1.1185563">
      <feGaussianBlur
         stdDeviation="15.039911"
         id="feGaussianBlur9100"
         inkscape:collect="always" />
    </filter>
    <filter
       color-interpolation-filters="sRGB"
       id="filter9094"
       inkscape:collect="always">
      <feGaussianBlur
         stdDeviation="15.039911"
         id="feGaussianBlur9096"
         inkscape:collect="always" />
    </filter>
    <filter
       color-interpolation-filters="sRGB"
       id="filter9090"
       inkscape:collect="always">
      <feGaussianBlur
         stdDeviation="15.039911"
         id="feGaussianBlur9092"
         inkscape:collect="always" />
    </filter>
    <filter
       color-interpolation-filters="sRGB"
       id="filter9086"
       inkscape:collect="always">
      <feGaussianBlur
         stdDeviation="15.039911"
         id="feGaussianBlur9088"
         inkscape:collect="always" />
    </filter>
    <filter
       color-interpolation-filters="sRGB"
       inkscape:collect="always"
       x="-0.10484781"
       width="1.2096956"
       y="-0.16617554"
       height="1.3323511"
       id="filter10273">
      <feGaussianBlur
         inkscape:collect="always"
         stdDeviation="28.144907"
         id="feGaussianBlur10275" />
    </filter>
    <filter
       color-interpolation-filters="sRGB"
       inkscape:collect="always"
       x="-0.18019789"
       width="1.3603958"
       y="-0.2855995"
       height="1.5711991"
       id="filter10307">
      <feGaussianBlur
         inkscape:collect="always"
         stdDeviation="48.371565"
         id="feGaussianBlur10309" />
    </filter>
    <linearGradient
       inkscape:collect="always"
       xlink:href="#id3-1"
       id="linearGradient8429"
       gradientUnits="userSpaceOnUse"
       gradientTransform="matrix(5.3630292,0,0,5.3630292,4.8445884,8.6113232)"
       x1="132.024"
       y1="187.59801"
       x2="0.113652"
       y2="187.59801" />
    <linearGradient
       inkscape:collect="always"
       xlink:href="#id2-1"
       id="linearGradient8431"
       gradientUnits="userSpaceOnUse"
       gradientTransform="matrix(5.3630292,0,0,5.3630292,4.8445884,8.6113232)"
       x1="108.515"
       y1="58.103901"
       x2="23.622499"
       y2="58.103901" />
    <linearGradient
       inkscape:collect="always"
       xlink:href="#id0-7"
       id="linearGradient8433"
       gradientUnits="userSpaceOnUse"
       gradientTransform="matrix(5.3630292,0,0,5.3630292,4.8445884,8.6113232)"
       x1="50.0536"
       y1="20.084299"
       x2="82.085602"
       y2="20.084299" />
    <linearGradient
       inkscape:collect="always"
       xlink:href="#id1-3"
       id="linearGradient8435"
       gradientUnits="userSpaceOnUse"
       gradientTransform="matrix(10.539765,0,0,10.539765,-163.6021,-437.66878)"
       x1="62.115002"
       y1="44.460602"
       x2="70.023399"
       y2="44.460602" />
  </defs>
  <g
     id="g8385"
     transform="translate(-4.5312383e-6,0)">
    <path
       d="m 242.0735,122.07248 c 0.0198,66.30841 -53.7283,120.07248 -120.03675,120.07248 -66.30844,0 -120.0565,-53.76407 -120.03674,-120.07248 C 1.98021,55.76407 55.72831,2 122.03675,2 188.3452,2 242.09326,55.76407 242.0735,122.07248 z"
       id="path2383"
       style="fill:#ffffff;fill-opacity:1;fill-rule:nonzero;stroke:#000000;stroke-width:4;stroke-linecap:round;stroke-linejoin:round;stroke-miterlimit:4;stroke-opacity:1;stroke-dasharray:none" />
    <path
       d="M 122.1875,60.96371 C 66.869221,62.08477 43.000002,98.3076 43,142.77621 c 0,19.85112 10.824503,38.07474 25.15625,52.25 C 37.632065,182.09184 13.557923,156.88701 2.125,125.61996 c 2.9078698,63.6827 55.50938,114.5 119.90625,114.5 66.26029,1e-5 120.03125,-53.77101 120.03125,-120.03125 0,-14.46772 -2.55222,-28.33997 -7.25,-41.1875 0.0841,1.84281 0.15625,3.69904 0.15625,5.5625 0,32.53736 -12.98751,62.06161 -34.03125,83.6875 3.60583,-7.98795 5.75,-16.52125 5.75,-25.375 0,-45.17446 -24.62116,-81.8125 -81.84375,-81.8125 -0.89395,0 -1.77818,-0.0178 -2.65625,0 z"
       id="path3221"
       style="fill:#000000;fill-opacity:0.31372549;fill-rule:nonzero;stroke:none" />
    <g
       transform="translate(0.76113937,-32.728991)"
       id="g8091">
      <path
         style="fill:#44aa00;fill-opacity:1;fill-rule:evenodd;stroke:#000000;stroke-width:4;stroke-linecap:butt;stroke-linejoin:round;stroke-miterlimit:4;stroke-opacity:1;stroke-dasharray:none"
         id="path2399"
         d="m 123.81648,195.03086 c -46.40343,-3.34987 -78.50119,11.43724 -78.50119,11.43724 0,0 10.24128,-0.24759 16.01714,0.6714 -10.83067,7.41256 -14.38166,22.12279 -14.38166,22.12279 0,0 12.07786,-12.9443 24.46017,-17.54853 -10.51293,13.98137 -11.91318,36.96048 -11.91318,36.96048 0,0 12.08966,-35.7251 34.67864,-43.12357 17.22122,-5.64038 35.43449,-2.32308 35.43449,-2.32308 0,0 36.11645,-2.49112 48.49082,19.07563 1.62923,0.77175 1.4682,-13.09772 -8.78484,-18.04747 l 27.63116,-1.43047 c -20.15254,-8.48528 -73.13155,-7.79442 -73.13155,-7.79442 z" />
      <path
         style="fill:#333333;fill-opacity:1;fill-rule:nonzero;stroke:#000000;stroke-width:4;stroke-linecap:round;stroke-linejoin:round;stroke-miterlimit:4;stroke-opacity:1"
         id="path3155"
         d="m 119.375,49.77621 c -30.12925,0.61059 -50.93167,11.65327 -63.625,28.75 -24.06444,-2.58779 -44.0625,23.625 -44.0625,23.625 0,0 18.89113,9.44632 32.0625,1.53125 -2.39923,8.71172 -3.5625,18.10595 -3.5625,27.90625 0,45.17448 56.1255,81.84375 81.84375,81.84375 26.71661,0 81.84375,-36.66927 81.84375,-81.84375 0,-9.8003 -1.16389,-19.19453 -3.5625,-27.90625 13.17137,7.91507 32.03125,-1.53125 32.03125,-1.53125 0,0 -19.97122,-26.20456 -44.03125,-23.625 -13.06166,-17.59499 -34.70768,-28.75 -66.28125,-28.75 -0.89395,0 -1.77818,-0.0178 -2.65625,0 z" />
      <path
         style="fill:#ffffff;fill-opacity:1;fill-rule:nonzero;stroke:#000000;stroke-width:3.99999952;stroke-linecap:round;stroke-linejoin:round;stroke-miterlimit:4;stroke-opacity:1;stroke-dasharray:none"
         id="path3157"
         d="m 118.40722,119.60218 c 0.004,12.51895 -10.14383,22.66953 -22.66277,22.66953 -12.51895,0 -22.66651,-10.15058 -22.66278,-22.66953 -0.004,-12.51894 10.14383,-22.66952 22.66278,-22.66952 12.51894,0 22.6665,10.15058 22.66277,22.66952 z" />
      <path
         style="fill:#ffffff;fill-opacity:1;fill-rule:nonzero;stroke:#000000;stroke-width:3.99999952;stroke-linecap:round;stroke-linejoin:round;stroke-miterlimit:4;stroke-opacity:1;stroke-dasharray:none"
         id="path3159"
         d="m 171.13942,119.60218 c 0.004,12.51895 -10.14383,22.66953 -22.66277,22.66953 -12.51895,0 -22.66651,-10.15058 -22.66278,-22.66953 -0.004,-12.51894 10.14383,-22.66952 22.66278,-22.66952 12.51894,0 22.6665,10.15058 22.66277,22.66952 z" />
      <path
         style="fill:#000000;fill-opacity:1;fill-rule:nonzero;stroke:none"
         id="path3161"
         d="m 150.99473,123.60218 c 0.001,4.17298 -3.38127,7.55651 -7.55425,7.55651 -4.17298,0 -7.5555,-3.38353 -7.55425,-7.55651 -0.001,-4.17298 3.38127,-7.5565 7.55425,-7.5565 4.17298,0 7.5555,3.38352 7.55425,7.5565 z" />
      <path
         style="fill:#000000;fill-opacity:1;fill-rule:nonzero;stroke:none"
         id="path3163"
         d="m 108.96439,123.60218 c 0.001,4.17298 -3.38127,7.55651 -7.55425,7.55651 -4.17298,0 -7.5555,-3.38353 -7.55425,-7.55651 -0.001,-4.17298 3.38127,-7.5565 7.55425,-7.5565 4.17298,0 7.5555,3.38352 7.55425,7.5565 z" />
      <path
         style="fill:#000000;fill-opacity:0.31372549;fill-rule:nonzero;stroke:none"
         id="path3231"
         d="m 200.59375,104.77621 -1.875,2.65625 c 0.24888,3.07548 0.34375,6.20264 0.34375,9.375 0,45.17449 -55.12714,81.84375 -81.84375,81.84375 -20.70581,2e-5 -61.09673,-23.75565 -76.0625,-56.59375 7.61581,40.24628 57.1719,71.37501 80.875,71.375 26.71661,0 81.84375,-36.6693 81.84375,-81.84375 0,-9.39155 -1.07538,-18.41026 -3.28125,-26.8125 z" />
      <path
         style="fill:#000000;fill-opacity:1;fill-rule:nonzero;stroke:none"
         id="path2398"
         d="m 138.63219,184.23352 c -2.29272,3.97309 -6.50025,5.8386 -9.39677,4.16629 -2.89654,-1.67231 -3.38472,-6.2489 -1.09029,-10.22099 2.29273,-3.9731 6.50026,-5.83861 9.39679,-4.1663 2.89653,1.67231 3.38471,6.2489 1.09027,10.221 z" />
      <path
         style="fill:#000000;fill-opacity:1;fill-rule:nonzero;stroke:none"
         id="path2412"
         d="m 105.89514,184.23352 c 2.29272,3.97309 6.50025,5.8386 9.39677,4.16629 2.89654,-1.67231 3.38472,-6.2489 1.09029,-10.22099 -2.29273,-3.9731 -6.50026,-5.83861 -9.39679,-4.1663 -2.89653,1.67231 -3.38471,6.2489 -1.09027,10.221 z" />
      <path
         style="fill:#ffff00;fill-opacity:1;fill-rule:nonzero;stroke:#000000;stroke-width:4;stroke-linecap:round;stroke-linejoin:round;stroke-miterlimit:4;stroke-opacity:1;stroke-dasharray:none"
         id="path3181"
         d="m 46.90156,212.38348 c -3.29969,-0.34546 -6.27774,2.03968 -6.6232,5.33939 -0.0552,0.5277 -0.0194,1.04476 0.0581,1.5457 -2.78152,0.27262 -5.09905,2.48582 -5.40132,5.37306 -0.34546,3.29971 2.07403,6.24993 5.37372,6.59538 0.75259,0.0788 1.46564,0.002 2.15575,-0.18279 -0.16989,3.17347 2.17561,5.97779 5.37194,6.31242 3.29972,0.34544 6.24992,-2.07401 6.59538,-5.37374 0.0864,-0.82493 0.006,-1.63304 -0.22216,-2.37981 2.57267,-0.45549 4.66767,-2.56718 4.95317,-5.29429 0.34545,-3.29972 -2.07401,-6.24992 -5.37372,-6.59538 -0.5265,-0.0551 -1.04256,-0.05 -1.54246,0.027 -0.27261,-2.78152 -2.45798,-5.06471 -5.34523,-5.36698 z m 0.29299,11.90773 c 0.0399,0.40692 0.10311,0.80409 0.22148,1.18576 -0.1726,0.0306 -0.34586,0.0581 -0.51355,0.10333 0.0228,-0.4257 0.008,-0.85594 -0.0563,-1.26272 0.11437,-0.0112 0.23577,-0.009 0.3484,-0.0264 z" />
    </g>
    <g
       transform="translate(-4.8438639,-8.6113085)"
       id="g8020">
      <path
         style="fill:url(#linearGradient8429);fill-rule:evenodd;stroke:#1f1a17;stroke-width:1.21903801"
         id="path7685"
         d="m 99.447329,265.21983 44.525281,0 c 6.21453,0 11.29807,7.03341 11.29807,15.63195 l 0,102.82286 c 0,2.55576 -1.51111,4.64668 -3.35839,4.64668 l -60.404625,0 c -1.84734,0 -3.358394,-2.09092 -3.358394,-4.64668 l 0,-102.82286 c 0,-8.59854 5.083537,-15.63195 11.298027,-15.63195 z"
         class="fil0 str0" />
      <path
         style="fill:url(#linearGradient8431);fill-rule:evenodd;stroke:#1f1a17;stroke-width:1.21903801"
         id="path7687"
         d="m 100.11151,265.19866 43.19691,0 0,-4.31988 c 0,-2.37574 -1.94374,-4.31954 -4.31948,-4.31954 l -34.55791,0 c -2.37574,0 -4.31954,1.9438 -4.31954,4.31954 l 0,4.31988 z"
         class="fil1 str0" />
      <path
         style="fill:url(#linearGradient8433);fill-rule:evenodd;stroke:#1f1a17;stroke-width:1.21903801"
         id="path7689"
         d="m 114.76797,231.37152 13.8844,0 c 0.66684,0 1.20733,0.54048 1.20733,1.20733 l 0,17.90889 c 0,0.66685 -0.54048,1.20739 -1.20733,1.20739 l -13.8844,0 c -0.66649,0 -1.20698,-0.54054 -1.20698,-1.20739 l -3.8e-4,-17.90889 c 3.8e-4,-0.66685 0.54083,-1.20733 1.20768,-1.20733 z"
         class="fil2 str0" />
      <polygon
         transform="matrix(0.50883763,0,0,0.50883763,88.091498,231.31369)"
         style="fill:url(#linearGradient8435);fill-rule:evenodd;stroke:#1f1a17;stroke-width:2.39573073"
         id="polygon7691"
         points="62.115,39.913 62.115,49.0084 70.0234,49.0084 70.0234,39.913 "
         class="fil3 str0" />
      <line
         style="fill:none;stroke:#1f1a17;stroke-width:0.46445441"
         id="line7693"
         y2="249.70709"
         x2="128.22804"
         y1="234.81654"
         x1="128.22804"
         class="fil4 str1" />
      <line
         style="fill:none;stroke:#1f1a17;stroke-width:0.46445441"
         id="line7695"
         y2="249.70709"
         x2="124.4456"
         y1="234.81654"
         x1="124.4456"
         class="fil4 str1" />
      <line
         style="fill:none;stroke:#1f1a17;stroke-width:0.46445441"
         id="line7697"
         y2="249.70709"
         x2="119.90708"
         y1="234.81654"
         x1="119.90708"
         class="fil4 str1" />
      <line
         style="fill:none;stroke:#1f1a17;stroke-width:0.46445441"
         id="line7699"
         y2="249.70709"
         x2="115.36825"
         y1="234.81654"
         x1="115.36825"
         class="fil4 str1" />
      <circle
         d="m 69.689682,11.4147 c 0,1.589188 -1.288291,2.87748 -2.87748,2.87748 -1.589188,0 -2.87748,-1.288292 -2.87748,-2.87748 0,-1.5891888 1.288292,-2.8774805 2.87748,-2.8774805 1.589189,0 2.87748,1.2882917 2.87748,2.8774805 z"
         transform="matrix(0.50883763,0,0,0.50883763,88.091498,231.31369)"
         style="fill:#ffffff;fill-rule:evenodd;stroke:#1f1a17;stroke-width:0.91277528"
         sodipodi:ry="2.87748"
         sodipodi:rx="2.87748"
         sodipodi:cy="11.4147"
         sodipodi:cx="66.812202"
         id="circle7701"
         r="2.87748"
         cy="11.4147"
         cx="66.812202"
         class="fil5 str1" />
      <circle
         d="m 68.254282,11.4147 c 0,0.796438 -0.645641,1.44208 -1.44208,1.44208 -0.796438,0 -1.44208,-0.645642 -1.44208,-1.44208 0,-0.796439 0.645642,-1.4420805 1.44208,-1.4420805 0.796439,0 1.44208,0.6456415 1.44208,1.4420805 z"
         transform="matrix(0.50883763,0,0,0.50883763,88.091498,231.31369)"
         style="fill:#383431;fill-rule:evenodd;stroke:#1f1a17;stroke-width:2.39573073"
         sodipodi:ry="1.44208"
         sodipodi:rx="1.44208"
         sodipodi:cy="11.4147"
         sodipodi:cx="66.812202"
         id="circle7703"
         r="1.44208"
         cy="11.4147"
         cx="66.812202"
         class="fil6 str0" />
    </g>
    <g
       transform="translate(80,-40)"
       id="g8129">
      <g
         id="g8117"
         transform="matrix(0.77016791,-0.63784119,0.63784119,0.77016791,-189.43406,158.87484)">
        <path
           d="m 115.21922,212.64209 c 0,9.09078 -14.66533,9.38135 -32.73511,9.38135 -18.06978,0 -32.73512,0.69349 -32.73512,-9.38135 0,-17.71594 14.66534,-32.0941 32.73512,-32.0941 18.06978,0 32.73511,14.37816 32.73511,32.0941 z"
           id="path3329"
           style="fill:#333333;fill-opacity:1;fill-rule:nonzero;stroke:#000000;stroke-width:3.99999976;stroke-linecap:round;stroke-linejoin:round;stroke-miterlimit:4;stroke-opacity:1" />
        <path
           d="m 69.89368,221.4225 c 0,-16.36756 9.44283,-26.43991 9.44283,-26.43991 0,0 -3.77713,13.84948 -3.14761,26.43991 l -6.29522,0 z"
           id="path3331"
           style="fill:#000000;fill-opacity:0.31372549;fill-rule:evenodd;stroke:#000000;stroke-width:4;stroke-linecap:butt;stroke-linejoin:round;stroke-miterlimit:4;stroke-opacity:1;stroke-dasharray:none" />
      </g>
      <g
         id="g8113"
         transform="matrix(0.88699748,0.46177426,-0.46177426,0.88699748,22.54068,3.4727651)">
        <path
           d="m 130.21703,212.64209 c 0,9.09078 14.66533,9.38135 32.73511,9.38135 18.06978,0 32.73512,0.69349 32.73512,-9.38135 0,-17.71594 -14.66534,-32.0941 -32.73512,-32.0941 -18.06978,0 -32.73511,14.37816 -32.73511,32.0941 z"
           id="path3172"
           style="fill:#333333;fill-opacity:1;fill-rule:nonzero;stroke:#000000;stroke-width:3.99999976;stroke-linecap:round;stroke-linejoin:round;stroke-miterlimit:4;stroke-opacity:1" />
        <path
           d="m 175.54257,221.4225 c 0,-16.36756 -9.44283,-26.43991 -9.44283,-26.43991 0,0 3.77713,13.84948 3.14761,26.43991 l 6.29522,0 z"
           id="path3174"
           style="fill:#000000;fill-opacity:0.31372549;fill-rule:evenodd;stroke:#000000;stroke-width:4;stroke-linecap:butt;stroke-linejoin:round;stroke-miterlimit:4;stroke-opacity:1;stroke-dasharray:none" />
      </g>
    </g>
    <g
       id="g8253"
       transform="matrix(0.33232276,-0.28338954,0.23292046,0.27313912,-104.50531,221.8292)">
      <path
         style="opacity:0.21363633;fill:#ffffff;fill-opacity:1;stroke:none;filter:url(#filter9098)"
         id="path3169"
         sodipodi:nodetypes="csssccsssssssssc"
         d="m 636.45637,363.58679 c 7.31431,49.80476 -13.38011,100.49198 -57.64176,87.7563 37.63087,-41.03503 184.74187,-19.56439 66.08053,6.47822 -12.56195,33.70548 -89.30523,88.86537 -84.24577,78.30047 C 544.99553,503.90577 359.01743,313.2081 377.73805,389.93259 c 92.83824,54.36274 29.11396,117.29665 2.78327,51.35784 -22.13282,-50.37278 27.61659,88.37538 -23.82662,38.12958 -113.27846,-18.54298 34.66656,-28.03858 -111.21099,-32.92841 -91.36329,24.98542 51.74879,18.26583 64.18218,-91.48909 -30.2227,-85.53436 -56.95297,15.00711 -56.76613,8.79167 62.31103,-207.01931 26.6998,283.85977 94.96619,58.68316 32.97019,38.75147 -150.478,-315.29949 -29.29151,-206.78983 28.08221,-2.07907 194.87993,79.34582 142.60081,139.11551 116.91366,-67.05359 201.66224,-106.17601 146.16875,-49.43942 53.35087,5.49803 120.27771,25.5715 128.67181,67.88826 7.26285,39.97659 -177.07653,-95.62492 -99.60526,-30.64977 120.52409,-69.19735 88.48469,-14.90799 87.29683,-19.08059" />
      <path
         style="opacity:0.21363633;fill:#ffffff;fill-opacity:1;stroke:none;filter:url(#filter9094)"
         id="path7701"
         sodipodi:nodetypes="csssccsssssssssc"
         d="m 689.19725,299.34193 c 23.32951,63.30983 5.4337,45.50569 -39.88153,119.98236 C 556.141,386.6412 879.03359,325.71454 687.03839,382.06654 648.27447,424.589 741.48993,536.97561 704.49285,524.03502 623.88614,463.01685 511.3509,332.35188 474.86811,338.48204 c 49.29341,33.21309 2.84458,246.74524 -41.64137,111.16275 -18.87939,-32.71968 -17.93572,-49.52719 -71.98239,-95.01716 -120.27782,58.98033 -26.83154,60.11616 -99.48691,59.42435 -65.38828,15.35098 32.50497,-50.77849 54.72776,-129.75454 -55.84915,-74.80172 -14.57944,7.53709 -38.36219,38.14154 -4.45564,-242.42801 99.47536,153.44771 173.76975,37.24827 -10.36701,79.26455 -114.39077,-223.2871 -37.48072,-189.17489 40.92516,18.74041 203.23381,138.89255 167.23021,159.50632 100.99886,-60.31809 226.36311,-157.72753 136.82852,-93.28695 69.40215,-66.92073 58.73993,64.55977 67.64508,88.15658 4.15038,80.68462 -119.1411,-83.40627 -70.04043,-5.83406 115.86653,-56.5365 95.05153,-21.17171 65.1035,-14.03658" />
      <path
         style="opacity:0.21363633;fill:#ffffff;fill-opacity:1;stroke:none;filter:url(#filter9090)"
         id="path7733"
         sodipodi:nodetypes="csssccsssssssssc"
         d="m 614.30083,383.18405 c 7.91628,66.53331 -33.40689,-36.65767 -37.57368,86.09479 -154.59756,10.18794 274.89305,-225.12675 36.38568,-96.40781 31.92635,46.74207 64.55338,183.83579 24.16673,173.9073 C 532.43782,426.88432 379.97203,362.37776 439.40068,339.39131 c 85.46671,69.79342 -61.47109,239.25094 -106.82541,73.74439 -14.6142,-24.49712 36.93592,-19.69012 31.11453,-4.30044 -99.80467,25.97942 -79.15071,-49.19821 -153.45213,7.94871 -45.5416,5.94521 19.07351,-43.25672 57.08152,-104.12967 17.20689,-114.27264 5.44222,-10.14376 4.05048,-51.56932 -84.31834,-162.3951 37.57809,184.66379 122.35417,87.87251 -172.88435,65.82543 -158.78794,-216.69262 -58.51926,-127.63463 54.21596,13.47718 194.11967,67.80517 169.08273,81.29364 203.27393,-54.15139 342.26162,-175.17012 193.84267,-98.69842 60.80594,-65.30478 22.28073,115.60558 32.60373,136.91207 20.18707,84.34465 -93.83839,-51.64931 -51.73421,42.37025 142.39916,-36.57394 -75.66125,-146.34066 20.05005,-38.14524" />
      <path
         style="opacity:0.21363633;fill:#ffffff;fill-opacity:1;stroke:none;filter:url(#filter9086)"
         id="path7799"
         sodipodi:nodetypes="czzzzzzzzzzzzzzzz"
         d="M 688.02039,360.78913 C 709.83089,434.11786 652.30233,338.65399 575.9426,463.22777 554.44406,520.66555 844.83078,290.75813 691.47505,395.42657 573.33283,501.86809 726.82412,596.0789 661.60816,544.29607 601.9525,463.5507 426.05167,311.45587 477.11904,319.26046 c 115.76198,41.8856 -15.994,242.03615 -68.76222,92.92566 -68.14672,-117.06165 -22.27029,-34.72523 -77.45205,-8.13328 -98.02706,-11.53885 -69.70359,-67.11696 -126.37604,-41.02606 -56.26045,31.0978 80.80181,-17.01576 89.06184,-87.46653 19.17612,-76.21672 56.02416,29.57307 17.57731,-53.67154 C 265.35427,138.0693 535.422,312.29824 445.72407,300.30946 363.03786,266.24571 268.09085,118.92796 408.60803,213.37708 494.15697,294.24117 271.399,456.71873 504.6489,365.08745 578.17629,333.114 775.58725,121.82971 686.7658,161.04528 c -84.59869,-49.47557 108.03953,91.68977 74.4798,111.3573 73.86488,50.57166 -113.01928,174.2563 -65.50737,121.45821 87.60893,26.86301 -52.08265,-165.30892 42.24822,-69.62617" />
      <path
         style="opacity:0.21363633;fill:#ffffff;fill-opacity:1;stroke:none;filter:url(#filter9098)"
         id="path9106"
         sodipodi:nodetypes="csssccsssssssssc"
         d="m 683.86925,394.05815 c 3.22902,-31.43738 49.23887,209.46921 -49.98141,193.26964 -40.55581,41.22222 203.56409,-273.7137 -7.17953,-183.01582 -9.2399,2.50628 -139.99798,116.78547 -59.02054,163.668 -19.36094,-61.0386 -80.41419,-110.54204 -170.87072,-79.27439 33.3119,56.17211 59.89234,125.13898 41.45007,69.93818 -48.30988,-49.26566 56.41212,-38.15918 7.11103,-83.25458 -70.39696,4.62696 -102.67885,10.49634 -235.62331,-2.55347 -75.79784,55.50419 112.13984,-53.31584 98.45773,-141.40188 -40.44991,44.81405 16.71584,48.41246 8.6439,34.76508 -40.36859,-185.28774 -100.05657,178.02113 62.52164,93.76695 30.62924,8.79695 13.11347,-243.23362 76.75717,-161.96083 58.88654,-1.57619 -15.31682,123.04181 41.62754,158.56902 42.49682,-76.31053 220.79221,-199.82121 163.2115,-95.48509 66.39228,-36.8176 87.34078,-10.05942 78.70891,59.36846 -8.63765,140.08169 -125.47649,-183.54116 -58.71969,-32.68901 157.41776,-20.80266 -9.77806,21.48392 36.73404,-12.82498" />
      <path
         style="opacity:0.21363633;fill:#ffffff;fill-opacity:1;stroke:none;filter:url(#filter9094)"
         id="path9108"
         sodipodi:nodetypes="csssccsssssssssc"
         d="m 698.46529,353.58168 c 90.88821,3.5911 84.01684,-39.61447 37.23895,34.24762 -119.19356,-24.93169 156.35319,-70.11612 -41.37421,-13.79637 -42.54307,38.88115 94.86441,223.14968 47.31925,229.26207 65.89753,-18.92751 -176.117,-235.19628 -209.00769,-234.21702 38.82201,20.71719 -52.38676,300.95794 -120.7407,179.66974 -61.00824,-19.19715 44.43678,-153.3583 -15.58301,-153.56072 -173.79063,125.92042 2.53628,63.70579 -72.78983,47.44232 -72.54524,-0.68898 64.31642,0.66354 79.6636,-75.58347 C 340.44811,275.23187 380.29876,253.74689 338.74978,289.68004 390.2899,75.93371 435.5836,502.99939 472.97876,394.66686 462.61482,474.03641 357.51348,150.43851 398.24225,162.63634 c 40.22907,19.08699 254.54171,168.96958 217.67108,188.99247 99.68991,-62.00213 202.62401,-138.40526 73.58409,-134.5959 61.24184,-72.34918 115.85342,92.09318 131.96259,156.40658 4.59265,62.31477 -225.64843,-99.0904 -87.26596,-18.01935 167.98582,-4.617 117.25001,-46.4797 86.95553,-30.97361" />
      <path
         style="opacity:0.21363633;fill:#ffffff;fill-opacity:1;stroke:none;filter:url(#filter9090)"
         id="path9110"
         sodipodi:nodetypes="csssccsssssssssc"
         d="m 683.61095,459.03389 c 7.68178,66.0997 -126.3629,-33.35253 -101.29555,154.97981 -284.58689,20.47928 363.62597,-279.87311 96.54239,-167.40891 55.15698,85.77097 -6.08913,230.22368 -12.68963,181.45309 C 561.75633,511.19101 373.2169,474.09943 410.16926,439.41171 c 80.51033,71.05252 -47.40783,108.80346 -45.43166,-9.1025 -36.20327,-67.64912 72.88864,-44.62313 43.18639,0.39604 -88.24629,60.73766 -96.80375,-87.81772 -174.2378,14.39095 -43.4215,-14.13326 42.78132,-42.711 74.25793,-84.62204 13.92647,-121.62831 30.16854,-44.95216 -7.12698,-88.1002 -147.50544,-49.89265 53.84638,146.33015 156.29624,20.43724 -147.82434,50.17972 -179.66854,-114.60363 -120.86749,-19.6167 62.77708,25.2335 183.98699,93.75584 172.43384,104.37106 227.49724,-44.85679 462.40699,-276.2257 242.85749,-239.11783 86.04977,-67.63722 -2.50228,253.21489 9.16921,235.44623 60.32589,166.14409 -83.11752,-18.46156 -45.92361,82.71665 123.5894,0.16029 -119.93775,-170.66598 0.0723,-39.92386" />
      <path
         style="opacity:0.21363633;fill:#ffffff;fill-opacity:1;stroke:none;filter:url(#filter9086)"
         id="path9112"
         sodipodi:nodetypes="czzzzzzzzzzzzzzzz"
         d="m 639.89002,530.36304 c -44.70522,-3.87059 112.75646,19.55839 6.55888,56.98085 -125.67738,10.5901 140.54863,-241.03484 6.55401,-138.52485 -50.81716,108.72021 112.9893,227.13605 57.26551,156.77348 C 567.18829,463.39153 453.78356,445.43564 522.76528,462.98624 573.1238,488.47711 436.28247,592.399 397.06363,567.40204 309.79858,494.13802 444.28707,448.12353 400.21906,516.05425 311.87397,470.90729 299.75241,462.149 283.20918,464.32881 c -6.17983,7.22932 20.30875,62.83497 23.30881,-68.59895 6.92393,-45.07668 93.96425,-18.45676 10.78799,-129.28154 59.95433,-53.91954 209.06609,269.34217 95.47728,188.81671 -106.57628,3.1896 -14.58594,-253.86114 26.07939,-149.16441 173.55717,73.69246 -44.96983,164.7295 144.9254,81.93349 16.21265,50.81031 184.32858,-202.69 149.45938,-122.62843 -5.25271,-98.23306 12.29929,119.30406 42.73193,145.48038 -20.01845,67.43974 -221.78656,-11.06301 -53.38413,24.56086 96.38074,-28.34779 -80.16008,-125.28278 22.28624,-3.99837" />
      <path
         style="opacity:0.29090905;fill:#4d4d4d;fill-opacity:1;stroke:none;filter:url(#filter10273)"
         id="path9230"
         sodipodi:nodetypes="czzzzzzzzzzzzzzzz"
         transform="matrix(0.894633,0,0,0.6081561,47.501763,43.39895)"
         d="m 661.96002,712.5338 c 2.20848,-33.56893 88.62114,15.96476 -4.93477,59.98928 -156.15485,10.81949 55.29876,-271.33318 -31.86211,-163.78411 -46.435,182.34244 86.50819,187.92741 32.89292,140.31926 C 486.70916,626.463 375.97966,660.50405 571.81796,614.93494 622.18078,640.58997 403.65636,744.82042 359.34763,717.16846 265.62197,619.48227 536.48367,608.79467 434.82284,703.60981 411.8948,769.74405 342.72953,602.29614 326.39162,603.42065 c 16.15254,14.1149 -70.03533,55.08013 -86.26643,-74.08148 21.44247,-53.16528 65.65748,21.22957 -0.21696,-78.4722 61.45851,18.50345 291.49323,257.50776 177.82863,191.96528 C 296.85042,622.32554 394.21334,381.17919 410.97637,446.9828 592.46296,517.59251 426.937,659.24178 617.67822,574.91694 637.6148,680.18971 754.29616,446.7833 717.45796,482.2782 c -2.59141,-98.24357 28.11232,69.14423 59.32187,98.39492 -15.35397,64.15175 -265.05189,12.19519 -79.38776,23.30851 95.284,-28.26918 -25.43352,-146.67605 52.92699,9.23359" />
      <path
         d="m 661.96002,712.5338 c 2.20848,-33.56893 88.62114,15.96476 -4.93477,59.98928 -156.15485,10.81949 55.29876,-271.33318 -31.86211,-163.78411 -46.435,182.34244 86.50819,187.92741 32.89292,140.31926 C 486.70916,626.463 375.97966,660.50405 571.81796,614.93494 622.18078,640.58997 403.65636,744.82042 359.34763,717.16846 265.62197,619.48227 536.48367,608.79467 434.82284,703.60981 411.8948,769.74405 342.72953,602.29614 326.39162,603.42065 c 16.15254,14.1149 -70.03533,55.08013 -86.26643,-74.08148 21.44247,-53.16528 65.65748,21.22957 -0.21696,-78.4722 61.45851,18.50345 291.49323,257.50776 177.82863,191.96528 C 296.85042,622.32554 394.21334,381.17919 410.97637,446.9828 592.46296,517.59251 426.937,659.24178 617.67822,574.91694 637.6148,680.18971 754.29616,446.7833 717.45796,482.2782 c -2.59141,-98.24357 28.11232,69.14423 59.32187,98.39492 -15.35397,64.15175 -265.05189,12.19519 -79.38776,23.30851 95.284,-28.26918 -25.43352,-146.67605 52.92699,9.23359"
         transform="matrix(0.4392971,0,0,0.34573,350.68987,238.53493)"
         sodipodi:nodetypes="czzzzzzzzzzzzzzzz"
         id="path10277"
         style="opacity:0.29090905;fill:#4d4d4d;fill-opacity:1;stroke:none;filter:url(#filter10307)" />
    </g>
  </g>
</svg>
